<svg xmlns="http://www.w3.org/2000/svg" width="1140" height="390" viewBox="0 0 1140 390">
  <defs>
    <marker id="arrow" viewBox="0 0 10 10" refX="9" refY="5" markerWidth="8" markerHeight="8" orient="auto-start-reverse">
      <path d="M 0 0 L 10 5 L 0 10 z" fill="#5a6470"/>
    </marker>
  </defs>
  <rect width="1140" height="390" fill="#ffffff"/>
  <text x="40" y="24" font-family="Helvetica, Arial, sans-serif" font-size="18" font-weight="700" fill="#1f2933">GemStone-Pharo-Bridge Package Graph</text>
  <path d="M 340 68 C 380 68, 380 68, 420 68" fill="none" stroke="#5a6470" stroke-width="2" marker-end="url(#arrow)"/>
  <path d="M 340 68 C 380 68, 0 188, 40 188" fill="none" stroke="#5a6470" stroke-width="2" marker-end="url(#arrow)"/>
  <path d="M 340 188 C 380 188, 380 188, 420 188" fill="none" stroke="#5a6470" stroke-width="2" marker-end="url(#arrow)"/>
  <path d="M 720 68 C 760 68, 380 188, 420 188" fill="none" stroke="#5a6470" stroke-width="2" marker-end="url(#arrow)"/>
  <path d="M 340 68 C 380 68, 0 308, 40 308" fill="none" stroke="#5a6470" stroke-width="2" marker-end="url(#arrow)"/>
  <path d="M 340 188 C 380 188, 0 308, 40 308" fill="none" stroke="#5a6470" stroke-width="2" marker-end="url(#arrow)"/>
  <path d="M 340 308 C 380 308, 380 308, 420 308" fill="none" stroke="#5a6470" stroke-width="2" marker-end="url(#arrow)"/>
  <path d="M 720 68 C 760 68, 380 308, 420 308" fill="none" stroke="#5a6470" stroke-width="2" marker-end="url(#arrow)"/>
  <path d="M 340 308 C 380 308, 760 308, 800 308" fill="none" stroke="#5a6470" stroke-width="2" marker-end="url(#arrow)"/>
  <path d="M 720 68 C 760 68, 760 308, 800 308" fill="none" stroke="#5a6470" stroke-width="2" marker-end="url(#arrow)"/>
  <path d="M 720 188 C 760 188, 760 308, 800 308" fill="none" stroke="#5a6470" stroke-width="2" marker-end="url(#arrow)"/>
  <rect x="40" y="40" width="300" height="56" rx="10" ry="10" fill="#d8ecff" stroke="#334155" stroke-width="2"/>
  <text x="56" y="71" font-family="Helvetica, Arial, sans-serif" font-size="15" font-weight="600" fill="#102a43">GemStone-GBS-Converted</text>
  <rect x="420" y="40" width="300" height="56" rx="10" ry="10" fill="#ffe6c7" stroke="#334155" stroke-width="2"/>
  <text x="436" y="71" font-family="Helvetica, Arial, sans-serif" font-size="15" font-weight="600" fill="#102a43">GemStone-GBS-MagLev</text>
  <rect x="40" y="160" width="300" height="56" rx="10" ry="10" fill="#d8ecff" stroke="#334155" stroke-width="2"/>
  <text x="56" y="191" font-family="Helvetica, Arial, sans-serif" font-size="15" font-weight="600" fill="#102a43">GemStone-GBS-Tools</text>
  <rect x="420" y="160" width="300" height="56" rx="10" ry="10" fill="#ffe6c7" stroke="#334155" stroke-width="2"/>
  <text x="436" y="191" font-family="Helvetica, Arial, sans-serif" font-size="15" font-weight="600" fill="#102a43">GemStone-GBS-MagLev-Tools</text>
  <rect x="40" y="280" width="300" height="56" rx="10" ry="10" fill="#e4f7df" stroke="#334155" stroke-width="2"/>
  <text x="56" y="311" font-family="Helvetica, Arial, sans-serif" font-size="15" font-weight="600" fill="#102a43">GemStone-Pharo-Core-Tests</text>
  <rect x="420" y="280" width="300" height="56" rx="10" ry="10" fill="#fff4bf" stroke="#334155" stroke-width="2"/>
  <text x="436" y="311" font-family="Helvetica, Arial, sans-serif" font-size="15" font-weight="600" fill="#102a43">GemStone-Pharo-Compatibility-Tests</text>
  <rect x="800" y="280" width="300" height="56" rx="10" ry="10" fill="#f0e0ff" stroke="#334155" stroke-width="2"/>
  <text x="816" y="311" font-family="Helvetica, Arial, sans-serif" font-size="15" font-weight="600" fill="#102a43">GemStone-Pharo-Tests</text>
</svg>
